<svg width="21" height="22" viewBox="0 0 21 22" fill="none" xmlns="http://www.w3.org/2000/svg">
<path d="M19.9454 16.2551C19.3142 15.1714 18.3757 12.1512 18.3757 8.23592C18.3757 6.05162 17.4999 3.95678 15.9409 2.41225C14.3819 0.867711 12.2675 0 10.0627 0C7.858 0 5.74355 0.867711 4.18457 2.41225C2.62558 3.95678 1.74975 6.05162 1.74975 8.23592C1.74975 12.1512 0.810158 15.1714 0.179027 16.2497C0.0626095 16.4473 0.000859058 16.6718 8.89871e-06 16.9005C-0.000841261 17.1293 0.0592392 17.3542 0.174185 17.5527C0.289132 17.7511 0.454875 17.9159 0.654688 18.0306C0.8545 18.1452 1.08131 18.2057 1.31222 18.2057H6.15016C6.25934 19.158 6.71854 20.0372 7.44016 20.6755C8.16179 21.3139 9.09534 21.6667 10.0627 21.6667C11.0301 21.6667 11.9637 21.3139 12.6853 20.6755C13.4069 20.0372 13.8661 19.158 13.9753 18.2057H18.8133C19.0433 18.2049 19.269 18.1442 19.4679 18.0298C19.6668 17.9153 19.8319 17.7511 19.9465 17.5535C20.0612 17.356 20.1214 17.1321 20.1212 16.9042C20.121 16.6763 20.0604 16.4525 19.9454 16.2551ZM10.0627 20.8065C9.32632 20.8065 8.61459 20.5435 8.05793 20.0659C7.50128 19.5882 7.13698 18.9278 7.03178 18.2057H13.0937C12.9885 18.9278 12.6242 19.5882 12.0675 20.0659C11.5109 20.5435 10.7992 20.8065 10.0627 20.8065ZM19.1906 17.122C19.1532 17.1882 19.0986 17.2433 19.0324 17.2814C18.9662 17.3195 18.8909 17.3393 18.8144 17.3388H1.31222C1.23566 17.3393 1.16036 17.3195 1.09417 17.2814C1.02799 17.2433 0.973344 17.1882 0.935947 17.122C0.897546 17.0562 0.87733 16.9814 0.87733 16.9053C0.87733 16.8292 0.897546 16.7545 0.935947 16.6886C1.74975 15.2982 2.6248 12.0635 2.6248 8.23592C2.6248 6.28155 3.40844 4.40722 4.80332 3.02526C6.1982 1.64331 8.09007 0.866939 10.0627 0.866939C12.0354 0.866939 13.9273 1.64331 15.3222 3.02526C16.717 4.40722 17.5007 6.28155 17.5007 8.23592C17.5007 12.0624 18.3757 15.2982 19.1895 16.6886C19.2281 16.7544 19.2485 16.8291 19.2487 16.9052C19.2489 16.9813 19.2289 17.0561 19.1906 17.122Z" fill="#C8C8C8"/>
</svg>
