<svg width="29" height="30" viewBox="0 0 29 30" fill="none" xmlns="http://www.w3.org/2000/svg">
<path fill-rule="evenodd" clip-rule="evenodd" d="M18.5829 29.1666L16.2754 28.5118L16.8225 28.4709C17.5727 28.4148 18.281 28.1353 18.8547 27.6782L19.0175 27.7244C19.407 27.835 19.8264 27.789 20.1833 27.5967C20.5403 27.4044 20.8055 27.0815 20.9208 26.699L26.1359 9.39352C26.2512 9.01105 26.207 8.60033 26.013 8.25172C25.8191 7.90311 25.4913 7.64517 25.1018 7.53465L18.669 5.70932L18.5418 4.10779L25.5364 6.09252C26.3154 6.31358 26.971 6.82945 27.3589 7.52667C27.7467 8.22388 27.8351 9.04532 27.6046 9.81027L22.3895 27.1158C22.159 27.8807 21.6284 28.5266 20.9146 28.9111C20.2007 29.2957 19.362 29.3876 18.5829 29.1666Z" fill="#C8C8C8"/>
<path d="M14.8702 2.03417C15.3519 1.99815 15.8287 2.14929 16.1955 2.45434C16.5624 2.7594 16.7893 3.19337 16.8265 3.6608L18.5061 24.8102C18.5432 25.2776 18.3874 25.7402 18.073 26.0962C17.7587 26.4522 17.3114 26.6724 16.8297 26.7084L5.932 27.5233C5.45029 27.5593 4.97357 27.4082 4.6067 27.1031C4.23983 26.7981 4.01287 26.3641 3.97575 25.8967L2.29617 4.74733C2.25905 4.2799 2.41481 3.81731 2.72918 3.46131C3.04355 3.10532 3.49078 2.88509 3.97249 2.84907L14.8702 2.03417ZM3.83253 1.08662C2.86911 1.15866 1.97464 1.59912 1.3459 2.31111C0.717154 3.0231 0.405639 3.94829 0.479882 4.88315L2.15946 26.0325C2.23371 26.9674 2.68762 27.8353 3.42136 28.4454C4.1551 29.0555 5.10855 29.3578 6.07197 29.2858L16.9697 28.4709C17.9331 28.3988 18.8276 27.9584 19.4563 27.2464C20.0851 26.5344 20.3966 25.6092 20.3223 24.6743L18.6428 3.52498C18.5685 2.59013 18.1146 1.72217 17.3809 1.11207C16.6471 0.501964 15.6937 0.199683 14.7303 0.271724L3.83253 1.08662Z" fill="#C8C8C8"/>
<path d="M11.241 25.3535C11.7227 25.3175 12.1699 25.0973 12.4843 24.7413C12.7987 24.3853 12.9544 23.9227 12.9173 23.4553C12.8802 22.9878 12.6532 22.5539 12.2864 22.2488C11.9195 21.9438 11.4428 21.7926 10.9611 21.8286C10.4794 21.8647 10.0321 22.0849 9.71775 22.4409C9.40338 22.7969 9.24762 23.2595 9.28474 23.7269C9.32186 24.1943 9.54882 24.6283 9.91569 24.9334C10.2826 25.2384 10.7593 25.3896 11.241 25.3535Z" fill="#C8C8C8"/>
</svg>
