<svg width="29" height="30" viewBox="0 0 29 30" fill="none" xmlns="http://www.w3.org/2000/svg">
<path d="M25.1019 7.53464C25.4914 7.64517 25.8192 7.90311 26.0131 8.25171C26.207 8.60032 26.2512 9.01104 26.136 9.39352L20.9209 26.699C20.8056 27.0815 20.5403 27.4044 20.1834 27.5967C19.8265 27.789 19.4071 27.8349 19.0176 27.7244L10.2054 25.2239C9.81586 25.1134 9.48808 24.8555 9.29414 24.5069C9.10021 24.1583 9.05601 23.7475 9.17127 23.3651L14.3864 6.05953C14.5016 5.67706 14.7669 5.35415 15.1239 5.16186C15.4808 4.96956 15.9001 4.92362 16.2897 5.03415L25.1019 7.53464ZM16.7243 3.59203C15.9452 3.37097 15.1065 3.46284 14.3926 3.84743C13.6788 4.23203 13.1482 4.87783 12.9177 5.64278L7.70258 22.9483C7.47205 23.7133 7.56045 24.5347 7.94831 25.2319C8.33618 25.9291 8.99174 26.445 9.77079 26.6661L18.583 29.1665C19.362 29.3876 20.2007 29.2957 20.9146 28.9111C21.6285 28.5265 22.159 27.8807 22.3896 27.1158L27.6047 9.81026C27.8352 9.04531 27.7468 8.22388 27.3589 7.52666C26.9711 6.82945 26.3155 6.31357 25.5365 6.09251L16.7243 3.59203Z" fill="#C8C8C8"/>
<path d="M25.1019 7.53464C25.4914 7.64517 25.8192 7.90311 26.0131 8.25171C26.207 8.60032 26.2512 9.01104 26.136 9.39352L20.9209 26.699C20.8056 27.0815 20.5403 27.4044 20.1834 27.5967C19.8265 27.789 19.4071 27.8349 19.0176 27.7244L10.2054 25.2239C9.81586 25.1134 9.48808 24.8555 9.29414 24.5069C9.10021 24.1583 9.05601 23.7475 9.17127 23.3651L14.3864 6.05953C14.5016 5.67706 14.7669 5.35415 15.1239 5.16186C15.4808 4.96956 15.9001 4.92362 16.2897 5.03415L25.1019 7.53464Z" fill="white"/>
<path d="M14.723 2.03417C15.2047 1.99815 15.6814 2.14929 16.0483 2.45434C16.4152 2.75939 16.6421 3.19337 16.6793 3.6608L18.3588 24.8102C18.396 25.2776 18.2402 25.7402 17.9258 26.0962C17.6115 26.4522 17.1642 26.6724 16.6825 26.7084L5.78479 27.5233C5.30308 27.5593 4.82635 27.4082 4.45948 27.1031C4.09261 26.7981 3.86566 26.3641 3.82853 25.8967L2.14895 4.74733C2.11183 4.2799 2.26759 3.81731 2.58196 3.46131C2.89633 3.10532 3.34357 2.88509 3.82527 2.84907L14.723 2.03417ZM3.68531 1.08662C2.72189 1.15866 1.82742 1.59912 1.19868 2.31111C0.569938 3.0231 0.258423 3.94829 0.332665 4.88315L2.01225 26.0325C2.08649 26.9674 2.54041 27.8353 3.27414 28.4454C4.00788 29.0555 4.96133 29.3578 5.92475 29.2858L16.8225 28.4709C17.7859 28.3988 18.6804 27.9584 19.3091 27.2464C19.9378 26.5344 20.2494 25.6092 20.1751 24.6743L18.4955 3.52498C18.4213 2.59012 17.9674 1.72217 17.2336 1.11207C16.4999 0.501964 15.5465 0.199683 14.583 0.271724L3.68531 1.08662Z" fill="#C8C8C8"/>
<path d="M14.723 2.03417C15.2047 1.99815 15.6814 2.14929 16.0483 2.45434C16.4152 2.75939 16.6421 3.19337 16.6793 3.6608L18.3588 24.8102C18.396 25.2776 18.2402 25.7402 17.9258 26.0962C17.6115 26.4522 17.1642 26.6724 16.6825 26.7084L5.78479 27.5233C5.30308 27.5593 4.82635 27.4082 4.45948 27.1031C4.09261 26.7981 3.86566 26.3641 3.82853 25.8967L2.14895 4.74733C2.11183 4.2799 2.26759 3.81731 2.58196 3.46131C2.89633 3.10532 3.34357 2.88509 3.82527 2.84907L14.723 2.03417Z" fill="white"/>
<path d="M11.0938 25.3535C11.5755 25.3175 12.0227 25.0973 12.3371 24.7413C12.6515 24.3853 12.8072 23.9227 12.7701 23.4553C12.733 22.9878 12.506 22.5539 12.1391 22.2488C11.7723 21.9438 11.2956 21.7926 10.8138 21.8286C10.3321 21.8647 9.8849 22.0849 9.57053 22.4409C9.25616 22.7969 9.1004 23.2595 9.13752 23.7269C9.17464 24.1943 9.4016 24.6283 9.76847 24.9334C10.1353 25.2384 10.6121 25.3896 11.0938 25.3535Z" fill="#C8C8C8"/>
</svg>
