<svg width="35" height="35" viewBox="0 0 35 35" fill="none" xmlns="http://www.w3.org/2000/svg">
<path d="M30.9087 2.14672C31.4512 2.14672 31.9716 2.37289 32.3552 2.77548C32.7388 3.17806 32.9543 3.72409 32.9543 4.29343V30.054C32.9543 30.6234 32.7388 31.1694 32.3552 31.572C31.9716 31.9746 31.4512 32.2008 30.9087 32.2008H18.635C18.0924 32.2008 17.5721 31.9746 17.1885 31.572C16.8048 31.1694 16.5893 30.6234 16.5893 30.054V4.29343C16.5893 3.72409 16.8048 3.17806 17.1885 2.77548C17.5721 2.37289 18.0924 2.14672 18.635 2.14672H30.9087ZM18.635 0C17.5499 0 16.5093 0.452343 15.742 1.25752C14.9747 2.06269 14.5437 3.15474 14.5437 4.29343V30.054C14.5437 31.1927 14.9747 32.2848 15.742 33.09C16.5093 33.8951 17.5499 34.3475 18.635 34.3475H30.9087C31.9938 34.3475 33.0344 33.8951 33.8017 33.09C34.5689 32.2848 35 31.1927 35 30.054V4.29343C35 3.15474 34.5689 2.06269 33.8017 1.25752C33.0344 0.452343 31.9938 0 30.9087 0L18.635 0Z" fill="#808080"/>
<path d="M30.9087 2.14672C31.4512 2.14672 31.9716 2.37289 32.3552 2.77548C32.7388 3.17806 32.9543 3.72409 32.9543 4.29343V30.054C32.9543 30.6234 32.7388 31.1694 32.3552 31.572C31.9716 31.9746 31.4512 32.2008 30.9087 32.2008H18.635C18.0924 32.2008 17.5721 31.9746 17.1885 31.572C16.8048 31.1694 16.5893 30.6234 16.5893 30.054V4.29343C16.5893 3.72409 16.8048 3.17806 17.1885 2.77548C17.5721 2.37289 18.0924 2.14672 18.635 2.14672H30.9087Z" fill="white"/>
<path d="M24.5033 29.9746C24.971 29.9746 25.4195 29.7874 25.7502 29.4543C26.0809 29.1211 26.2666 28.6693 26.2666 28.1981C26.2666 27.727 26.0809 27.2751 25.7502 26.942C25.4195 26.6089 24.971 26.4217 24.5033 26.4217C24.0356 26.4217 23.5871 26.6089 23.2565 26.942C22.9258 27.2751 22.74 27.727 22.74 28.1981C22.74 28.6693 22.9258 29.1211 23.2565 29.4543C23.5871 29.7874 24.0356 29.9746 24.5033 29.9746Z" fill="#808080"/>
<path d="M16.5961 13.6049C16.3594 10.338 15.6044 7.27829 13.2597 5.39672C10.915 3.51516 8.3913 3.58745 7.37739 5.20526C6.36348 6.82306 16.6292 15.2162 16.5961 13.6049Z" fill="#5C5C5C"/>
<path d="M15.4739 14.1155L8.54133 5.9606C9.11235 4.80231 11.6813 5.46106 13.0177 6.9743C14.354 8.48755 15.9223 11.6698 15.4739 14.1155Z" fill="white"/>
<path d="M10.5959 18.8548C14.0069 20.5427 15.9857 21.5072 18.8951 23.3693C18.9999 22.5736 19.0111 22.4888 18.9291 21.761C21.4496 20.7523 22.2179 19.6093 22.1419 16.2769C23.3956 16.2856 24.1552 16.3789 25.6379 16.7444C25.7201 14.0811 25.4981 12.7118 23.4319 10.5358C23.3499 9.80798 23.4195 9.27968 23.6871 8.59865C25.1812 9.30377 25.7917 9.75878 27.149 10.6744C27.3673 10.2469 27.4269 10.0362 27.463 9.64115C26.5303 8.62041 24.5255 7.63554 22.9987 7.07299C22.5297 7.86484 22.2423 8.76387 22.2547 10.0199C19.4937 9.60279 18.8858 10.6286 18.7959 13.3207C17.7912 13.2686 17.2404 13.1965 16.0811 13.6745C12.2699 8.53247 8.97186 5.73506 6.67274 5.42764C5.27434 5.24066 3.38804 6.05677 3.08555 8.35284C2.85355 10.1138 3.65696 12.6865 6.88793 14.5957C10.0235 16.4486 13.9155 16.6106 13.9155 16.6106C13.9155 16.6106 14.1189 17.5642 14.4291 18.1129C12.878 18.2361 12.0409 18.4015 10.5959 18.8548Z" fill="#5C5C5C"/>
<path d="M6.45034 23.3181C10.2193 25.6727 12.3338 27.0696 16.1835 29.0996C16.8137 28.3667 17.2431 27.8077 17.9299 26.6451C14.2601 24.7964 11.9521 23.4126 7.83734 20.8912C7.1424 21.8077 6.73361 22.4004 6.45034 23.3181Z" fill="#5C5C5C"/>
<path d="M8.04074 32.8493C6.67455 30.8855 6.02455 29.2505 5.93994 27.1923C9.56693 29.3657 10.3945 29.8348 13.5863 31.2612C11.4824 32.1699 10.4129 32.5549 8.04074 32.8493Z" fill="#5C5C5C"/>
<path d="M7.83734 20.8912C11.9521 23.4126 14.2601 24.7964 17.9299 26.6451C18.6631 25.1303 18.7327 24.602 18.8951 23.3693C15.9857 21.5072 14.0069 20.5427 10.5959 18.8548C9.2208 19.5139 8.80213 19.9273 7.83734 20.8912Z" fill="#FFF48C"/>
<path d="M5.93994 27.1923C9.56693 29.3657 10.3945 29.8348 13.5863 31.2612C14.7511 30.5209 15.3297 30.0925 16.1835 29.0996C12.3338 27.0696 10.2193 25.6727 6.45034 23.3181C6.10918 24.4233 5.86509 25.3715 5.93994 27.1923Z" fill="#FFF48C"/>
<path d="M5.93994 27.1923C6.02455 29.2505 6.67455 30.8855 8.04073 32.8493C10.4129 32.5549 11.4824 32.1699 13.5863 31.2612M5.93994 27.1923C9.56693 29.3657 10.3945 29.8348 13.5863 31.2612M5.93994 27.1923C5.86509 25.3715 6.10918 24.4233 6.45034 23.3181M13.5863 31.2612C14.7511 30.5209 15.3297 30.0925 16.1835 29.0996M6.45034 23.3181C10.2193 25.6727 12.3338 27.0696 16.1835 29.0996M6.45034 23.3181C6.73361 22.4004 7.1424 21.8077 7.83734 20.8912M16.1835 29.0996C16.8137 28.3667 17.2431 27.8077 17.9299 26.6451M17.9299 26.6451C14.2601 24.7964 11.9521 23.4126 7.83734 20.8912M17.9299 26.6451C18.6631 25.1303 18.7327 24.602 18.8951 23.3693M7.83734 20.8912C8.80213 19.9273 9.2208 19.5139 10.5959 18.8548M10.5959 18.8548C14.0069 20.5427 15.9857 21.5072 18.8951 23.3693M10.5959 18.8548C12.0409 18.4015 12.878 18.2361 14.4291 18.1129C14.1189 17.5642 13.9155 16.6106 13.9155 16.6106C13.9155 16.6106 10.0235 16.4486 6.88793 14.5957C3.65696 12.6865 2.85355 10.1138 3.08555 8.35284C3.38804 6.05677 5.27434 5.24066 6.67274 5.42764C8.97186 5.73506 12.2699 8.53247 16.0811 13.6745C17.2404 13.1965 17.7912 13.2686 18.7959 13.3207C18.8858 10.6286 19.4937 9.60279 22.2547 10.0199C22.2423 8.76387 22.5297 7.86484 22.9987 7.07299C24.5255 7.63554 26.5303 8.62041 27.463 9.64115C27.4269 10.0362 27.3673 10.2469 27.149 10.6744C25.7917 9.75878 25.1812 9.30377 23.6871 8.59865C23.4195 9.27968 23.3499 9.80798 23.4319 10.5358C25.4981 12.7118 25.7201 14.0811 25.6379 16.7444C24.1552 16.3789 23.3956 16.2856 22.1419 16.2769C22.2179 19.6093 21.4496 20.7523 18.9291 21.761C19.0111 22.4888 18.9999 22.5736 18.8951 23.3693" stroke="#5C5C5C" stroke-width="2"/>
<path d="M16.6118 15.4267C18.0098 13.9007 21.7652 17.3434 20.2656 18.9858C18.7659 20.6281 15.2139 16.9526 16.6118 15.4267Z" fill="white"/>
<path d="M4.91386 6.62608C6.69585 5.25154 12.1162 8.66433 15.091 14.4382C12.8202 16.8226 5.66426 14.4321 3.94866 9.90186C3.94866 9.90186 3.13188 8.00063 4.91386 6.62608Z" fill="white"/>
</svg>
