<svg width="31" height="30" viewBox="0 0 31 30" fill="none" xmlns="http://www.w3.org/2000/svg">
<path d="M21.856 11.9999C21.856 13.5911 21.2238 15.1172 20.0986 16.2425C18.9734 17.3677 17.4473 17.9998 15.856 17.9998C14.2647 17.9998 12.7385 17.3677 11.6133 16.2425C10.4881 15.1172 9.85596 13.5911 9.85596 11.9999C9.85596 10.4086 10.4881 8.88247 11.6133 7.75726C12.7385 6.63206 14.2647 5.99992 15.856 5.99992C17.4473 5.99992 18.9734 6.63206 20.0986 7.75726C21.2238 8.88247 21.856 10.4086 21.856 11.9999Z" fill="#C8C8C8"/>
<path fill-rule="evenodd" clip-rule="evenodd" d="M15.244 29.9877C7.24371 29.6667 0.855957 23.0787 0.855957 14.9998C0.855957 6.71543 7.57146 0 15.856 0C24.1405 0 30.856 6.71543 30.856 14.9998C30.856 23.2842 24.1405 29.9997 15.856 29.9997C15.7875 30.0001 15.719 30.0001 15.6505 29.9997C15.5147 29.9997 15.379 29.9952 15.244 29.9877ZM6.23046 24.4647C6.11831 24.1427 6.08013 23.7995 6.11877 23.4606C6.15741 23.1218 6.27186 22.796 6.45364 22.5075C6.63542 22.2189 6.87985 21.975 7.1688 21.7938C7.45774 21.6127 7.78378 21.4989 8.12271 21.461C13.9697 20.8138 17.7782 20.8723 23.5967 21.4745C23.9361 21.5099 24.2629 21.6222 24.5523 21.8029C24.8417 21.9837 25.0861 22.2281 25.2668 22.5175C25.4474 22.807 25.5597 23.1338 25.5949 23.4732C25.6302 23.8126 25.5875 24.1556 25.4702 24.476C27.9639 21.9529 29.3604 18.5473 29.356 14.9998C29.356 7.54417 23.3117 1.49998 15.856 1.49998C8.40021 1.49998 2.35596 7.54417 2.35596 14.9998C2.35596 18.6868 3.83421 22.0288 6.23046 24.4647Z" fill="#C8C8C8"/>
</svg>
