<svg width="28" height="30" viewBox="0 0 28 30" fill="none" xmlns="http://www.w3.org/2000/svg">
<path fill-rule="evenodd" clip-rule="evenodd" d="M26.1807 10.2812H1.58967V28.3567H26.1807V10.2812ZM1.58967 8.63795C1.18205 8.63795 0.791125 8.81108 0.502893 9.11925C0.214661 9.42741 0.0527344 9.84537 0.0527344 10.2812V28.3567C0.0527344 28.7925 0.214661 29.2105 0.502893 29.5186C0.791125 29.8268 1.18205 29.9999 1.58967 29.9999H26.1807C26.5883 29.9999 26.9792 29.8268 27.2675 29.5186C27.5557 29.2105 27.7176 28.7925 27.7176 28.3567V10.2812C27.7176 9.84537 27.5557 9.42741 27.2675 9.11925C26.9792 8.81108 26.5883 8.63795 26.1807 8.63795H1.58967Z" fill="#C8C8C8"/>
<path fill-rule="evenodd" clip-rule="evenodd" d="M7.73736 14.3894C7.73736 14.1715 7.81832 13.9625 7.96244 13.8084C8.10655 13.6543 8.30202 13.5677 8.50583 13.5677H19.2644C19.4682 13.5677 19.6637 13.6543 19.8078 13.8084C19.9519 13.9625 20.0329 14.1715 20.0329 14.3894C20.0329 14.6073 19.9519 14.8162 19.8078 14.9703C19.6637 15.1244 19.4682 15.211 19.2644 15.211H8.50583C8.30202 15.211 8.10655 15.1244 7.96244 14.9703C7.81832 14.8162 7.73736 14.6073 7.73736 14.3894ZM6.20042 19.319C6.20042 19.1011 6.28138 18.8922 6.4255 18.7381C6.56962 18.584 6.76508 18.4974 6.96889 18.4974H20.8013C21.0051 18.4974 21.2006 18.584 21.3447 18.7381C21.4888 18.8922 21.5698 19.1011 21.5698 19.319C21.5698 19.537 21.4888 19.7459 21.3447 19.9C21.2006 20.0541 21.0051 20.1407 20.8013 20.1407H6.96889C6.76508 20.1407 6.56962 20.0541 6.4255 19.9C6.28138 19.7459 6.20042 19.537 6.20042 19.319ZM7.73736 24.2487C7.73736 24.0308 7.81832 23.8218 7.96244 23.6678C8.10655 23.5137 8.30202 23.4271 8.50583 23.4271H19.2644C19.4682 23.4271 19.6637 23.5137 19.8078 23.6678C19.9519 23.8218 20.0329 24.0308 20.0329 24.2487C20.0329 24.4666 19.9519 24.6756 19.8078 24.8297C19.6637 24.9838 19.4682 25.0704 19.2644 25.0704H8.50583C8.30202 25.0704 8.10655 24.9838 7.96244 24.8297C7.81832 24.6756 7.73736 24.4666 7.73736 24.2487ZM16.6024 2.84567C16.2456 2.46408 15.822 2.16139 15.3557 1.95487C14.8895 1.74835 14.3898 1.64206 13.8851 1.64206C13.3804 1.64206 12.8807 1.74835 12.4145 1.95487C11.9482 2.16139 11.5246 2.46408 11.1678 2.84567L5.20756 9.21976C5.06326 9.37403 4.86755 9.46071 4.66348 9.46071C4.45941 9.46071 4.2637 9.37403 4.11941 9.21976C3.97511 9.06548 3.89404 8.85623 3.89404 8.63805C3.89404 8.53002 3.91395 8.42305 3.95261 8.32324C3.99128 8.22343 4.04796 8.13274 4.11941 8.05635L10.0827 1.6839C11.0915 0.605701 12.4595 0 13.8859 0C15.3123 0 16.6803 0.605701 17.689 1.6839L23.6508 8.05799C23.7222 8.13438 23.7787 8.22505 23.8173 8.32482C23.8559 8.42459 23.8757 8.5315 23.8756 8.63946C23.8756 8.74741 23.8556 8.8543 23.8169 8.954C23.7782 9.05371 23.7215 9.1443 23.6501 9.22058C23.5786 9.29686 23.4938 9.35735 23.4005 9.39859C23.3072 9.43983 23.2072 9.46102 23.1062 9.46095C23.0052 9.46087 22.9053 9.43953 22.812 9.39815C22.7187 9.35676 22.634 9.29615 22.5627 9.21976L16.6024 2.84567Z" fill="#C8C8C8"/>
</svg>
