<svg width="23" height="24" viewBox="0 0 23 24" fill="none" xmlns="http://www.w3.org/2000/svg">
<path d="M0.559221 10.5891C0.552693 10.3216 0.624862 10.058 0.766772 9.83112C0.908682 9.60424 1.11409 9.42402 1.3575 9.31282L20.7383 0.473269C20.9343 0.384072 21.1515 0.352175 21.3649 0.381272C21.5783 0.41037 21.7791 0.49927 21.944 0.637691C22.109 0.776113 22.2314 0.958402 22.2971 1.16348C22.3628 1.36856 22.3691 1.58804 22.3153 1.79656L16.9755 22.4179C16.9129 22.6592 16.7855 22.8787 16.6071 23.0528C16.4287 23.2269 16.2061 23.3489 15.9633 23.4055C15.7206 23.4622 15.4669 23.4513 15.2299 23.3742C14.9929 23.2971 14.7814 23.1565 14.6185 22.9679L8.8328 16.263L1.22514 11.7295C1.02689 11.6111 0.861842 11.4444 0.745397 11.245C0.628953 11.0456 0.564904 10.8199 0.559221 10.5891ZM10.2979 15.6774L15.5911 21.8119L20.6855 2.13751L2.19467 10.571L9.15511 14.7185L13.8614 9.10975C13.9886 8.95821 14.1707 8.86339 14.3678 8.84615C14.5649 8.8289 14.7607 8.89065 14.9123 9.01781C15.0638 9.14497 15.1586 9.32712 15.1759 9.52419C15.1931 9.72127 15.1314 9.91711 15.0042 10.0687L10.2979 15.6774Z" fill="#FFEA2F"/>
</svg>
